<svg width="280" height="194" viewBox="0 0 280 194" fill="none" xmlns="http://www.w3.org/2000/svg">
<g filter="url(#filter0_d_1_1572)">
<rect x="60" y="20" width="160" height="74" rx="12" fill="white"/>
</g>
<path d="M137.008 40.832C138.181 40.832 139.211 41.0613 140.096 41.52C140.992 41.9787 141.68 42.6347 142.16 43.488C142.651 44.3307 142.896 45.312 142.896 46.432C142.896 47.552 142.651 48.5333 142.16 49.376C141.68 50.208 140.992 50.8533 140.096 51.312C139.211 51.7707 138.181 52 137.008 52H133.104V40.832H137.008ZM136.928 50.096C138.101 50.096 139.008 49.776 139.648 49.136C140.288 48.496 140.608 47.5947 140.608 46.432C140.608 45.2693 140.288 44.3627 139.648 43.712C139.008 43.0507 138.101 42.72 136.928 42.72H135.344V50.096H136.928ZM152.813 47.376C152.813 47.696 152.791 47.984 152.749 48.24H146.269C146.322 48.88 146.546 49.3813 146.941 49.744C147.335 50.1067 147.821 50.288 148.397 50.288C149.229 50.288 149.821 49.9307 150.173 49.216H152.589C152.333 50.0693 151.842 50.7733 151.117 51.328C150.391 51.872 149.501 52.144 148.445 52.144C147.591 52.144 146.823 51.9573 146.141 51.584C145.469 51.2 144.941 50.6613 144.557 49.968C144.183 49.2747 143.997 48.4747 143.997 47.568C143.997 46.6507 144.183 45.8453 144.557 45.152C144.93 44.4587 145.453 43.9253 146.125 43.552C146.797 43.1787 147.57 42.992 148.445 42.992C149.287 42.992 150.039 43.1733 150.701 43.536C151.373 43.8987 151.89 44.416 152.253 45.088C152.626 45.7493 152.813 46.512 152.813 47.376ZM150.493 46.736C150.482 46.16 150.274 45.7013 149.869 45.36C149.463 45.008 148.967 44.832 148.381 44.832C147.826 44.832 147.357 45.0027 146.973 45.344C146.599 45.6747 146.37 46.1387 146.285 46.736H150.493ZM156.688 40.16V52H154.448V40.16H156.688ZM160.037 42.08C159.642 42.08 159.312 41.9573 159.045 41.712C158.789 41.456 158.661 41.1413 158.661 40.768C158.661 40.3947 158.789 40.0853 159.045 39.84C159.312 39.584 159.642 39.456 160.037 39.456C160.432 39.456 160.757 39.584 161.013 39.84C161.28 40.0853 161.413 40.3947 161.413 40.768C161.413 41.1413 161.28 41.456 161.013 41.712C160.757 41.9573 160.432 42.08 160.037 42.08ZM161.141 43.136V52H158.901V43.136H161.141ZM167.05 49.936L169.29 43.136H171.674L168.394 52H165.674L162.41 43.136H164.81L167.05 49.936ZM181.172 47.376C181.172 47.696 181.151 47.984 181.108 48.24H174.628C174.681 48.88 174.905 49.3813 175.3 49.744C175.695 50.1067 176.18 50.288 176.756 50.288C177.588 50.288 178.18 49.9307 178.532 49.216H180.948C180.692 50.0693 180.201 50.7733 179.476 51.328C178.751 51.872 177.86 52.144 176.804 52.144C175.951 52.144 175.183 51.9573 174.5 51.584C173.828 51.2 173.3 50.6613 172.916 49.968C172.543 49.2747 172.356 48.4747 172.356 47.568C172.356 46.6507 172.543 45.8453 172.916 45.152C173.289 44.4587 173.812 43.9253 174.484 43.552C175.156 43.1787 175.929 42.992 176.804 42.992C177.647 42.992 178.399 43.1733 179.06 43.536C179.732 43.8987 180.249 44.416 180.612 45.088C180.985 45.7493 181.172 46.512 181.172 47.376ZM178.852 46.736C178.841 46.16 178.633 45.7013 178.228 45.36C177.823 45.008 177.327 44.832 176.74 44.832C176.185 44.832 175.716 45.0027 175.332 45.344C174.959 45.6747 174.729 46.1387 174.644 46.736H178.852ZM185.047 44.512C185.335 44.0427 185.708 43.6747 186.167 43.408C186.636 43.1413 187.17 43.008 187.767 43.008V45.36H187.175C186.471 45.36 185.938 45.5253 185.575 45.856C185.223 46.1867 185.047 46.7627 185.047 47.584V52H182.807V43.136H185.047V44.512ZM197.756 43.136L192.268 56.192H189.884L191.804 51.776L188.252 43.136H190.764L193.052 49.328L195.372 43.136H197.756Z" fill="#404040"/>
<path d="M132.696 65.412C132.744 64.668 133.028 64.088 133.548 63.672C134.076 63.256 134.748 63.048 135.564 63.048C136.124 63.048 136.608 63.148 137.016 63.348C137.424 63.548 137.732 63.82 137.94 64.164C138.148 64.508 138.252 64.896 138.252 65.328C138.252 65.824 138.12 66.248 137.856 66.6C137.592 66.952 137.276 67.188 136.908 67.308V67.356C137.38 67.5 137.748 67.764 138.012 68.148C138.276 68.524 138.408 69.008 138.408 69.6C138.408 70.072 138.3 70.492 138.084 70.86C137.868 71.228 137.548 71.52 137.124 71.736C136.7 71.944 136.192 72.048 135.6 72.048C134.736 72.048 134.024 71.828 133.464 71.388C132.912 70.94 132.616 70.3 132.576 69.468H133.896C133.928 69.892 134.092 70.24 134.388 70.512C134.684 70.776 135.084 70.908 135.588 70.908C136.076 70.908 136.452 70.776 136.716 70.512C136.98 70.24 137.112 69.892 137.112 69.468C137.112 68.908 136.932 68.512 136.572 68.28C136.22 68.04 135.676 67.92 134.94 67.92H134.628V66.792H134.952C135.6 66.784 136.092 66.676 136.428 66.468C136.772 66.26 136.944 65.932 136.944 65.484C136.944 65.1 136.82 64.796 136.572 64.572C136.324 64.34 135.972 64.224 135.516 64.224C135.068 64.224 134.72 64.34 134.472 64.572C134.224 64.796 134.076 65.076 134.028 65.412H132.696ZM139.845 67.512C139.845 66.128 140.077 65.048 140.541 64.272C141.013 63.488 141.821 63.096 142.965 63.096C144.109 63.096 144.913 63.488 145.377 64.272C145.849 65.048 146.085 66.128 146.085 67.512C146.085 68.912 145.849 70.008 145.377 70.8C144.913 71.584 144.109 71.976 142.965 71.976C141.821 71.976 141.013 71.584 140.541 70.8C140.077 70.008 139.845 68.912 139.845 67.512ZM144.741 67.512C144.741 66.864 144.697 66.316 144.609 65.868C144.529 65.42 144.361 65.056 144.105 64.776C143.849 64.488 143.469 64.344 142.965 64.344C142.461 64.344 142.081 64.488 141.825 64.776C141.569 65.056 141.397 65.42 141.309 65.868C141.229 66.316 141.189 66.864 141.189 67.512C141.189 68.184 141.229 68.748 141.309 69.204C141.389 69.66 141.557 70.028 141.813 70.308C142.077 70.588 142.461 70.728 142.965 70.728C143.469 70.728 143.849 70.588 144.105 70.308C144.369 70.028 144.541 69.66 144.621 69.204C144.701 68.748 144.741 68.184 144.741 67.512ZM159.614 63.66V72H158.246V66.288L155.702 72H154.754L152.198 66.288V72H150.83V63.66H152.306L155.234 70.2L158.15 63.66H159.614ZM162.108 64.512C161.86 64.512 161.652 64.428 161.484 64.26C161.316 64.092 161.232 63.884 161.232 63.636C161.232 63.388 161.316 63.18 161.484 63.012C161.652 62.844 161.86 62.76 162.108 62.76C162.348 62.76 162.552 62.844 162.72 63.012C162.888 63.18 162.972 63.388 162.972 63.636C162.972 63.884 162.888 64.092 162.72 64.26C162.552 64.428 162.348 64.512 162.108 64.512ZM162.78 65.388V72H161.412V65.388H162.78ZM167.912 65.28C168.432 65.28 168.896 65.388 169.304 65.604C169.72 65.82 170.044 66.14 170.276 66.564C170.508 66.988 170.624 67.5 170.624 68.1V72H169.268V68.304C169.268 67.712 169.12 67.26 168.824 66.948C168.528 66.628 168.124 66.468 167.612 66.468C167.1 66.468 166.692 66.628 166.388 66.948C166.092 67.26 165.944 67.712 165.944 68.304V72H164.576V65.388H165.944V66.144C166.168 65.872 166.452 65.66 166.796 65.508C167.148 65.356 167.52 65.28 167.912 65.28Z" fill="#A5A4A4"/>
<g clip-path="url(#clip0_1_1572)">
<path d="M96.9999 45.1143C104.149 45.1143 109.965 50.9307 109.965 58.0796C109.965 65.229 104.149 71.0454 96.9999 71.0454C89.8505 71.0454 84.0345 65.229 84.0345 58.0796C84.0345 50.9307 89.8509 45.1143 96.9999 45.1143ZM96.9999 68.6956C102.853 68.6956 107.615 63.9333 107.615 58.0801C107.615 52.2269 102.853 47.4649 96.9999 47.4649C91.1466 47.4649 86.3847 52.2269 86.3847 58.0801C86.3847 63.9336 91.1467 68.6956 96.9999 68.6956Z" fill="#03A66B"/>
<path d="M93.3967 57.6881H96.5303V53.1444C96.5303 52.4953 97.0564 51.9692 97.7054 51.9692C98.3545 51.9692 98.8806 52.4953 98.8806 53.1444V58.8632C98.8806 59.5123 98.3545 60.0384 97.7054 60.0384H93.3967C92.7476 60.0384 92.2216 59.5123 92.2216 58.8632C92.2216 58.2142 92.7477 57.6881 93.3967 57.6881Z" fill="#03A66B"/>
<path d="M103.656 66.4902C104.139 66.0558 104.882 66.0953 105.316 66.5775L108.841 70.4945C109.276 70.9767 109.236 71.7198 108.754 72.1538C108.529 72.3564 108.248 72.4558 107.968 72.4558C107.646 72.4558 107.326 72.3246 107.094 72.0665L103.569 68.1495C103.134 67.6672 103.174 66.9242 103.656 66.4902Z" fill="#03A66B"/>
<path d="M85.1582 70.4947L88.6836 66.5776C89.1168 66.0951 89.8602 66.0559 90.3429 66.4903C90.8254 66.9244 90.8642 67.6674 90.4302 68.1496L86.9048 72.0666C86.6733 72.3244 86.3529 72.4556 86.0313 72.4556C85.7516 72.4556 85.4704 72.3561 85.2456 72.154C84.763 71.7199 84.7242 70.9768 85.1582 70.4947Z" fill="#03A66B"/>
<path d="M103.856 43.2568C106.191 40.9704 109.955 40.974 112.246 43.2654C113.386 44.4049 114.008 45.9126 114 47.5107C113.992 49.0896 113.366 50.568 112.237 51.6734C112.008 51.897 111.712 52.0086 111.415 52.0086C111.114 52.0086 110.813 51.8935 110.584 51.6647L103.847 44.9274C103.625 44.7054 103.501 44.4041 103.503 44.0904C103.504 43.7766 103.631 43.4765 103.856 43.2568ZM111.286 49.0426C111.521 48.5683 111.647 48.0434 111.65 47.4982C111.655 46.533 111.277 45.6195 110.584 44.927C109.893 44.2364 108.98 43.8913 108.061 43.8913C107.524 43.8913 106.985 44.0092 106.488 44.245L111.286 49.0426Z" fill="#03A66B"/>
<path d="M81.7546 43.2653C84.0461 40.9742 87.81 40.9703 90.1449 43.2567C90.369 43.4764 90.4963 43.7765 90.4978 44.0902C90.4994 44.404 90.3753 44.7056 90.1535 44.9272L83.4162 51.6645C83.1871 51.8941 82.8863 52.0088 82.5854 52.0088C82.2885 52.0088 81.9916 51.8972 81.7633 51.6728C80.6344 50.5678 80.0084 49.0895 80.0002 47.5105C79.9919 45.9128 80.6152 44.4051 81.7546 43.2653ZM82.7143 49.0429L87.5118 44.2453C86.1652 43.606 84.511 43.8329 83.4162 44.9276C82.7236 45.6202 82.3452 46.5332 82.3504 47.4988C82.3531 48.0437 82.4789 48.5689 82.7143 49.0429Z" fill="#03A66B"/>
</g>
<defs>
<filter id="filter0_d_1_1572" x="0" y="0" width="280" height="194" filterUnits="userSpaceOnUse" color-interpolation-filters="sRGB">
<feFlood flood-opacity="0" result="BackgroundImageFix"/>
<feColorMatrix in="SourceAlpha" type="matrix" values="0 0 0 0 0 0 0 0 0 0 0 0 0 0 0 0 0 0 127 0" result="hardAlpha"/>
<feMorphology radius="10" operator="erode" in="SourceAlpha" result="effect1_dropShadow_1_1572"/>
<feOffset dy="40"/>
<feGaussianBlur stdDeviation="35"/>
<feColorMatrix type="matrix" values="0 0 0 0 0 0 0 0 0 0 0 0 0 0 0 0 0 0 0.08 0"/>
<feBlend mode="normal" in2="BackgroundImageFix" result="effect1_dropShadow_1_1572"/>
<feBlend mode="normal" in="SourceGraphic" in2="effect1_dropShadow_1_1572" result="shape"/>
</filter>
<clipPath id="clip0_1_1572">
<rect width="34" height="34" fill="white" transform="matrix(-1 0 0 1 114 40)"/>
</clipPath>
</defs>
</svg>
